<svg width="191" height="50" viewBox="0 0 191 50" fill="none" xmlns="http://www.w3.org/2000/svg">
<path d="M0 27.5805L5.4771 1.66617H10.901L6.36337 23.0428H15.4387L14.4815 27.5805H0Z" transform="translate(56.7195 11.377)" fill="#444444"/>
<path d="M30.2216 11.2378C29.1817 11.2378 28.2009 11.7105 27.2792 12.6558C26.3575 13.6012 25.7548 14.7533 25.4712 16.1123H26.2688C28.1004 16.1123 29.5244 15.8287 30.5406 15.2614C31.5687 14.6824 32.0827 13.9025 32.0827 12.9217C32.0827 11.7991 31.4623 11.2378 30.2216 11.2378ZM27.3146 27.935C24.8331 27.935 22.9069 27.2674 21.5362 25.932C20.1654 24.5967 19.4801 22.712 19.4801 20.2777C19.4801 17.8316 19.9645 15.6041 20.9335 13.5953C21.9143 11.5746 23.2378 10.0384 24.904 8.9867C26.5702 7.92319 28.4549 7.39143 30.5583 7.39143C32.6499 7.39143 34.2806 7.87592 35.4505 8.8449C36.6204 9.80207 37.2053 11.1196 37.2053 12.7976C37.2053 15.0074 36.2186 16.7149 34.2452 17.9202C32.2718 19.1137 29.4535 19.7105 25.7902 19.7105H24.8863L24.8508 20.0827V20.4372C24.8508 21.5126 25.1521 22.3634 25.7548 22.9897C26.3693 23.6041 27.2437 23.9114 28.3781 23.9114C29.4062 23.9114 30.3397 23.7991 31.1787 23.5746C32.0177 23.3501 33.034 22.9542 34.2275 22.387V26.4106C32.195 27.4269 29.8907 27.935 27.3146 27.935Z" transform="translate(56.7195 11.377)" fill="#444444"/>
<path d="M46.192 22.2452C46.8419 20.4372 47.3855 19.1196 47.8227 18.2925L53.0871 7.76366H58.8124L48.1063 27.5805H42.3811L39.935 7.76366H45.1639L45.9616 18.1507C46.0443 19.7223 46.0857 21.0871 46.0857 22.2452H46.192Z" transform="translate(56.7195 11.377)" fill="#444444"/>
<path d="M69.0753 11.2378C68.0354 11.2378 67.0546 11.7105 66.1329 12.6558C65.2112 13.6012 64.6086 14.7533 64.325 16.1123H65.1226C66.9542 16.1123 68.3781 15.8287 69.3944 15.2614C70.4224 14.6824 70.9365 13.9025 70.9365 12.9217C70.9365 11.7991 70.3161 11.2378 69.0753 11.2378ZM66.1684 27.935C63.6868 27.935 61.7607 27.2674 60.3899 25.932C59.0192 24.5967 58.3338 22.712 58.3338 20.2777C58.3338 17.8316 58.8183 15.6041 59.7873 13.5953C60.7681 11.5746 62.0916 10.0384 63.7577 8.9867C65.4239 7.92319 67.3087 7.39143 69.4121 7.39143C71.5037 7.39143 73.1344 7.87592 74.3043 8.8449C75.4741 9.80207 76.0591 11.1196 76.0591 12.7976C76.0591 15.0074 75.0724 16.7149 73.099 17.9202C71.1255 19.1137 68.3072 19.7105 64.644 19.7105H63.74L63.7046 20.0827V20.4372C63.7046 21.5126 64.0059 22.3634 64.6086 22.9897C65.223 23.6041 66.0975 23.9114 67.2319 23.9114C68.26 23.9114 69.1935 23.7991 70.0325 23.5746C70.8715 23.3501 71.8877 22.9542 73.0812 22.387V26.4106C71.0487 27.4269 68.7444 27.935 66.1684 27.935Z" transform="translate(56.7195 11.377)" fill="#444444"/>
<path d="M82.9719 27.5805H77.6366L83.4859 0H88.8213L82.9719 27.5805Z" transform="translate(56.7195 11.377)" fill="#444444"/>
<path d="M22.9188 0L19.356 16.7681C18.6824 19.9114 17.3944 22.2806 15.4919 23.8759C13.5894 25.4712 11.1137 26.2688 8.06499 26.2688C5.55982 26.2688 3.58641 25.6012 2.14476 24.2659C0.714919 22.9188 0 21.099 0 18.8065C0 17.9557 0.0886263 17.1403 0.265879 16.3604L3.74003 0H9.14623L5.70753 16.2895C5.50665 17.164 5.4062 17.9025 5.4062 18.5052C5.4062 20.6086 6.52289 21.6603 8.75628 21.6603C10.2097 21.6603 11.3619 21.2112 12.2127 20.3131C13.0635 19.4032 13.678 18.0502 14.0561 16.2541L17.4948 0H22.9188Z" transform="translate(146.977 13.0432)" fill="#F2994A"/>
<path d="M31.8523 12.195H32.8449C34.5229 12.195 35.8405 11.7873 36.7976 10.9719C37.7666 10.1566 38.2511 9.06351 38.2511 7.69276C38.2511 5.56573 37.099 4.50221 34.7947 4.50221H33.483L31.8523 12.195ZM43.6928 7.55096C43.6928 10.3988 42.6883 12.6381 40.6795 14.2688C38.6824 15.8877 35.9232 16.6972 32.4018 16.6972H30.8774L28.9453 25.9143H23.5391L29.0162 0H35.0074C37.8671 0 40.0295 0.632201 41.4948 1.8966C42.9601 3.14919 43.6928 5.03397 43.6928 7.55096Z" transform="translate(146.977 13.0432)" fill="#F2994A"/>
<ellipse cx="24.3484" cy="24.2647" rx="24.3484" ry="24.2647" fill="#444444"/>
<path d="M14.2173 0L28.4347 24.5404H0L14.2173 0Z" transform="translate(10.3156 9.55884)" fill="#E5E5E5"/>
<path d="M8.13022 18.75H19.9355V40.4412H8.13022V18.75Z" transform="translate(10.3156 9.55884)" fill="#E5E5E5"/>
</svg>
